HIERARCHY
ROOT Hips
{
	OFFSET 0.000000 0.000000 0.000000
	CHANNELS 6 Xposition Yposition Zposition Zrotation Yrotation Xrotation 
	JOINT LHipJoint
	{
		OFFSET 0.000000 0.000000 0.000000
		CHANNELS 3 Zrotation Yrotation Xrotation
		JOINT LeftUpLeg
		{
			OFFSET 1.363060 -1.794630 0.839290
			CHANNELS 3 Zrotation Yrotation Xrotation
			JOINT LeftLeg
			{
				OFFSET 2.448110 -6.726130 0.000000
				CHANNELS 3 Zrotation Yrotation Xrotation
				JOINT LeftFoot
				{
					OFFSET 2.562200 -7.039590 0.000000
					CHANNELS 3 Zrotation Yrotation Xrotation
					JOINT LeftToeBase
					{
						OFFSET 0.157640 -0.433110 2.322550
						CHANNELS 3 Zrotation Yrotation Xrotation
						End Site
						{
							OFFSET 0.000000 0.000000 0.000000
						}
					}
				}
			}
		}
	}
	JOINT RHipJoint
	{
		OFFSET 0.000000 0.000000 0.000000
		CHANNELS 3 Zrotation Yrotation Xrotation
		JOINT RightUpLeg
		{
			OFFSET -1.305520 -1.794630 0.839290
			CHANNELS 3 Zrotation Yrotation Xrotation
			JOINT RightLeg
			{
				OFFSET -2.542530 -6.985550 0.000000
				CHANNELS 3 Zrotation Yrotation Xrotation
				JOINT RightFoot
				{
					OFFSET -2.568260 -7.056230 0.000000
					CHANNELS 3 Zrotation Yrotation Xrotation
					JOINT RightToeBase
					{
						OFFSET -0.164730 -0.452590 2.363150
						CHANNELS 3 Zrotation Yrotation Xrotation
						End Site
						{
							OFFSET 0.000000 0.000000 0.000000
						}
					}
				}
			}
		}
	}
	JOINT LowerBack
	{
		OFFSET 0.000000 0.000000 0.000000
		CHANNELS 3 Zrotation Yrotation Xrotation
		JOINT Spine
		{
			OFFSET 0.028270 2.035590 -0.193380
			CHANNELS 3 Zrotation Yrotation Xrotation
			JOINT Spine1
			{
				OFFSET 0.056720 2.048850 -0.042750
				CHANNELS 3 Zrotation Yrotation Xrotation
				JOINT Neck
				{
					OFFSET 0.000000 0.000000 0.000000
					CHANNELS 3 Zrotation Yrotation Xrotation
					JOINT Neck1
					{
						OFFSET -0.054170 1.746240 0.172020
						CHANNELS 3 Zrotation Yrotation Xrotation
						JOINT Head
						{
							OFFSET 0.104070 1.761360 -0.123970
							CHANNELS 3 Zrotation Yrotation Xrotation
							End Site
							{
								OFFSET 0.000000 0.000000 0.000000
							}
						}
					}
				}
				JOINT LeftShoulder
				{
					OFFSET 0.000000 0.000000 0.000000
					CHANNELS 3 Zrotation Yrotation Xrotation
					JOINT LeftArm
					{
						OFFSET 3.362410 1.200890 -0.311210
						CHANNELS 3 Zrotation Yrotation Xrotation
						JOINT LeftForeArm
						{
							OFFSET 4.983000 -0.000000 -0.000000
							CHANNELS 3 Zrotation Yrotation Xrotation
							JOINT LeftHand
							{
								OFFSET 3.483560 -0.000000 -0.000000
								CHANNELS 3 Zrotation Yrotation Xrotation
								JOINT LeftFingerBase
								{
									OFFSET 0.000000 0.000000 0.000000
									CHANNELS 3 Zrotation Yrotation Xrotation
									JOINT LeftHandIndex1
									{
										OFFSET 0.715260 -0.000000 -0.000000
										CHANNELS 3 Zrotation Yrotation Xrotation
										End Site
										{
											OFFSET 0.000000 0.000000 0.000000
										}
									}
								}
								JOINT LThumb
								{
									OFFSET 0.000000 0.000000 0.000000
									CHANNELS 3 Zrotation Yrotation Xrotation
									End Site
									{
										OFFSET 0.000000 0.000000 0.000000
									}
								}
							}
						}
					}
				}
				JOINT RightShoulder
				{
					OFFSET 0.000000 0.000000 0.000000
					CHANNELS 3 Zrotation Yrotation Xrotation
					JOINT RightArm
					{
						OFFSET -3.136600 1.374050 -0.404650
						CHANNELS 3 Zrotation Yrotation Xrotation
						JOINT RightForeArm
						{
							OFFSET -5.241900 -0.000000 -0.000000
							CHANNELS 3 Zrotation Yrotation Xrotation
							JOINT RightHand
							{
								OFFSET -3.444170 -0.000000 -0.000000
								CHANNELS 3 Zrotation Yrotation Xrotation
								JOINT RightFingerBase
								{
									OFFSET 0.000000 0.000000 0.000000
									CHANNELS 3 Zrotation Yrotation Xrotation
									JOINT RightHandIndex1
									{
										OFFSET -0.622530 -0.000000 -0.000000
										CHANNELS 3 Zrotation Yrotation Xrotation
										End Site
										{
											OFFSET 0.000000 0.000000 0.000000
										}
									}
								}
								JOINT RThumb
								{
									OFFSET 0.000000 0.000000 0.000000
									CHANNELS 3 Zrotation Yrotation Xrotation
									End Site
									{
										OFFSET 0.000000 0.000000 0.000000
									}
								}
							}
						}
					}
				}
			}
		}
	}
}
MOTION
Frames: 4
Frame Time: 0.008333
-29.212972 17.469760 1.655286 41.738797 86.738102 34.313436 2.529215 -2.033787 -0.093411 -17.866572 5.541563 17.459209 -1.967185 -0.261508 -0.295434 -1.328177 15.193464 -16.257787 0.056500 -1.534400 -4.220600 -4.809226 5.336089 -7.321764 13.292620 -13.200724 20.530884 -0.647834 -2.657591 2.689804 -0.326505 5.413555 -11.078802 -0.078000 -1.801900 4.958600 -1.305242 2.244198 10.500740 -0.545182 2.978874 -2.708181 -2.820261 1.392517 1.614538 2.430230 0.246326 -18.931926 6.198039 -0.506157 12.263288 0.018500 0.820400 13.082900 4.931849 -1.062498 1.102075 -2.330061 0.197907 -0.013291 -1.744712 -0.403953 -0.000126 -0.091598 -0.024277 -0.000063 -0.091598 -0.024277 -0.000000 0.000000 0.000000 0.000000 0.000000 0.000000 0.000000 -6.149440 1.797593 1.359699 90.690919 -5.298802 33.264852 -17.737066 33.254151 -4.798294 0.428299 -3.038476 7.081482 -10.074821 -33.978643 5.662200 7.125000 0.000000 0.000000 23.614700 -59.735200 -8.790800 
-29.215427 17.472317 1.657230 43.731277 86.590307 36.230540 2.564135 -1.986251 -0.077046 -18.044081 5.695066 17.430274 -1.962963 -0.225013 -0.243086 -1.297454 15.023287 -16.226684 0.043800 -1.350900 -3.714800 -4.735941 5.418940 -7.359565 13.062695 -13.068073 20.755262 -0.643548 -2.634314 2.683029 -0.340110 5.296587 -11.285283 -0.074900 -1.765400 4.857900 -1.711804 2.173963 10.532582 -0.509245 2.849141 -2.683646 -2.424376 1.316377 1.683052 2.304189 0.354119 -18.957672 6.179515 -0.312156 12.287988 0.048100 0.883900 13.100800 4.929450 -1.038438 1.094541 -2.292905 0.212045 -0.013357 -1.756594 -0.406052 -0.000126 -0.092949 -0.024536 -0.000063 -0.092949 -0.024536 0.000000 0.000000 0.000000 0.000000 0.000000 0.000000 0.000000 -6.124727 1.759294 1.348658 90.192275 -4.805653 34.844377 -17.717036 33.188108 -4.802247 0.453972 -3.084290 5.477088 -10.406846 -35.728912 6.090700 7.125000 0.000000 0.000000 24.771900 -61.313000 -10.190600 
-29.216245 17.472522 1.658969 42.790787 86.631635 35.286451 2.550561 -2.011192 -0.089743 -17.878270 5.799640 17.421558 -1.955965 -0.244695 -0.275883 -1.307639 15.034168 -16.100765 0.044900 -1.368300 -3.762800 -4.767709 5.388975 -7.349487 13.106687 -13.177886 20.678489 -0.644153 -2.655157 2.713980 -0.335460 5.426837 -11.225481 -0.070600 -1.714700 4.717900 -1.640116 2.183223 10.520304 -0.508162 2.869662 -2.671136 -2.432118 1.322998 1.741353 2.334585 0.372776 -19.059490 6.161122 -0.299784 12.304548 0.031100 0.893000 13.132700 4.914950 -1.051910 1.095257 -2.299057 0.202022 -0.013291 -1.754345 -0.406215 -0.000126 -0.092713 -0.024497 -0.000063 -0.092713 -0.024497 0.000000 0.000000 0.000000 0.000000 0.000000 0.000000 0.000000 -6.053739 1.769552 1.370247 90.164344 -5.310277 34.775752 -18.683033 34.193748 -5.174466 0.522686 -3.085066 5.212379 -10.062259 -36.560573 6.064900 7.125000 0.000000 0.000000 25.854900 -61.980600 -11.079800 
-29.214711 17.471806 1.659787 41.502308 86.756202 34.013726 2.525534 -2.034653 -0.095754 -17.667155 5.819230 17.406932 -1.950948 -0.256749 -0.277878 -1.325934 15.081455 -15.969538 0.063400 -1.625000 -4.470300 -4.818531 5.335293 -7.332166 13.344598 -13.182863 20.629419 -0.645752 -2.648376 2.663711 -0.330479 5.427146 -11.135151 -0.078100 -1.802700 4.960600 -1.481130 2.158173 10.516478 -0.490486 2.850431 -2.686886 -2.492542 1.304369 1.696701 2.344926 0.383681 -19.072658 6.163795 -0.287189 12.327366 0.037300 0.900200 13.160100 4.935847 -1.049983 1.098343 -2.299515 0.207946 -0.013369 -1.754586 -0.405838 -0.000127 -0.092712 -0.024492 -0.000063 -0.092712 -0.024492 0.000000 0.000000 0.000000 0.000000 0.000000 0.000000 0.000000 -6.108863 1.745658 1.344270 90.216434 -4.813005 34.903083 -17.909552 33.401503 -4.880972 0.475209 -3.097489 5.226391 -10.327917 -36.143030 6.118000 7.125000 0.000000 0.000000 25.212700 -61.651500 -10.588100 
